<?xml version="1.0"?>
<svg width="22" height="22" xmlns="http://www.w3.org/2000/svg" xmlns:svg="http://www.w3.org/2000/svg">
 <g class="layer">
  <title>Layer 1</title>
  <path d="m1.48,17.46c-0.85,0.85 -0.85,2.21 0,3.06c0.42,0.42 0.98,0.63 1.53,0.63c0.55,0 1.11,-0.21 1.53,-0.63l6.5,-6.5l6.5,6.5c0.42,0.42 0.98,0.63 1.53,0.63c0.55,0 1.11,-0.21 1.53,-0.63c0.85,-0.85 0.85,-2.21 0,-3.06l-6.5,-6.5l6.5,-6.5c0.85,-0.85 0.85,-2.21 0,-3.06c-0.85,-0.85 -2.21,-0.85 -3.06,0l-6.5,6.5l-6.5,-6.5c-0.85,-0.85 -2.21,-0.85 -3.06,0c-0.85,0.85 -0.85,2.21 0,3.06l6.5,6.5l-6.5,6.5z" fill="#944ef5" id="svg_1"/>
 </g>
</svg>