<?xml version="1.0"?>
<svg width="21" height="21" xmlns="http://www.w3.org/2000/svg" xmlns:svg="http://www.w3.org/2000/svg">
 <defs>
  <clipPath id="clip0_2029_5">
   <rect fill="white" height="19.78" id="svg_1" transform="translate(0.603012 0.658295)" width="19.78"/>
  </clipPath>
 </defs>
 <g class="layer">
  <title>Layer 1</title>
  <g clip-path="url(#clip0_2029_5)" id="svg_2">
   <path d="m10.49,0.66c-5.46,0 -9.89,4.43 -9.89,9.89c0,5.46 4.43,9.89 9.89,9.89c5.46,0 9.89,-4.43 9.89,-9.89c0,-5.46 -4.43,-9.89 -9.89,-9.89zm0,16.2c-0.77,0 -1.3,-0.6 -1.3,-1.37c0,-0.79 0.55,-1.37 1.3,-1.37c0.8,0 1.3,0.58 1.3,1.37c0,0.78 -0.5,1.37 -1.3,1.37zm0.52,-5.22c-0.2,0.67 -0.82,0.68 -1.03,0c-0.24,-0.79 -1.08,-3.78 -1.08,-5.72c0,-2.57 3.2,-2.58 3.2,0c0,1.95 -0.89,5.02 -1.09,5.72z" fill="#944ef5" id="svg_3"/>
  </g>
 </g>
</svg>